<svg width="27" height="27" viewBox="0 0 35 35" fill="none" fill="none" xmlns="http://www.w3.org/2000/svg">
<path d="M25.8902 20.4158C27.7025 20.4158 29.1715 21.8849 29.1715 23.697V25.017C29.1715 26.612 28.4752 28.1275 27.265 29.1664C24.9821 31.1262 21.715 32.0842 17.5004 32.0842C13.2865 32.0842 10.0216 31.1267 7.74239 29.1671C6.53398 28.1282 5.83887 26.6139 5.83887 25.0202V23.697C5.83887 21.8849 7.30793 20.4158 9.12012 20.4158H25.8902ZM25.8902 22.6033H9.12012C8.51605 22.6033 8.02637 23.093 8.02637 23.697V25.0202C8.02637 25.9764 8.44344 26.885 9.16847 27.5084C11.0032 29.0857 13.7682 29.8967 17.5004 29.8967C21.2336 29.8967 24.0014 29.0853 25.8402 27.5066C26.5661 26.8832 26.984 25.9739 26.984 25.017V23.697C26.984 23.093 26.4942 22.6033 25.8902 22.6033ZM17.3524 2.92665L17.5009 2.91666C18.0546 2.91666 18.5122 3.32813 18.5845 3.862L18.5946 4.01041L18.5934 5.10271L23.6983 5.10345C25.5105 5.10345 26.9796 6.57252 26.9796 8.3847V14.9539C26.9796 16.766 25.5105 18.2351 23.6983 18.2351H11.3024C9.49026 18.2351 8.02119 16.766 8.02119 14.9539V8.3847C8.02119 6.57252 9.49026 5.10345 11.3024 5.10345L16.4059 5.10271L16.4071 4.01041C16.4071 3.45668 16.8185 2.99907 17.3524 2.92665L17.5009 2.91666L17.3524 2.92665ZM23.6983 7.29095H11.3024C10.6984 7.29095 10.2087 7.78063 10.2087 8.3847V14.9539C10.2087 15.5579 10.6984 16.0476 11.3024 16.0476H23.6983C24.3024 16.0476 24.7921 15.5579 24.7921 14.9539V8.3847C24.7921 7.78063 24.3024 7.29095 23.6983 7.29095ZM14.2181 9.47845C15.2242 9.47845 16.0399 10.2941 16.0399 11.3003C16.0399 12.3065 15.2242 13.1222 14.2181 13.1222C13.2119 13.1222 12.3962 12.3065 12.3962 11.3003C12.3962 10.2941 13.2119 9.47845 14.2181 9.47845ZM20.77 9.47845C21.7762 9.47845 22.5919 10.2941 22.5919 11.3003C22.5919 12.3065 21.7762 13.1222 20.77 13.1222C19.7637 13.1222 18.9481 12.3065 18.9481 11.3003C18.9481 10.2941 19.7637 9.47845 20.77 9.47845Z" fill="white" fill-opacity="0.7"/>
</svg>
