<svg width="27" height="27" viewBox="0 0 35 35" fill="none" xmlns="http://www.w3.org/2000/svg">
<path d="M18.9588 20.4897V20.4165H6.20245C4.39117 20.4165 2.92285 21.8849 2.92285 23.6962V24.5386C2.92285 25.8406 3.38735 27.0999 4.23284 28.09C6.51703 30.7649 9.99663 32.0849 14.5844 32.0849C15.1058 32.0849 15.6127 32.0679 16.1054 32.0337C16.0639 31.8135 16.0421 31.5863 16.0421 31.3542V29.8455C15.574 29.8801 15.0881 29.8974 14.5844 29.8974C10.591 29.8974 7.72408 28.8098 5.89633 26.6694C5.38905 26.0753 5.11035 25.3199 5.11035 24.5386V23.6962C5.11035 23.093 5.5993 22.604 6.20245 22.604H16.3456C16.8142 21.5316 17.784 20.7282 18.9588 20.4897ZM14.5844 2.92343C18.6114 2.92343 21.8761 6.18801 21.8761 10.2151C21.8761 14.2422 18.6114 17.5067 14.5844 17.5067C10.5573 17.5067 7.29267 14.2422 7.29267 10.2151C7.29267 6.18801 10.5573 2.92343 14.5844 2.92343ZM14.5844 5.11093C11.7654 5.11093 9.48017 7.39614 9.48017 10.2151C9.48017 13.0341 11.7654 15.3192 14.5844 15.3192C17.4034 15.3192 19.6886 13.0341 19.6886 10.2151C19.6886 7.39614 17.4034 5.11093 14.5844 5.11093ZM20.4171 21.8751H19.688C18.4799 21.8751 17.5005 22.8544 17.5005 24.0626V31.3542C17.5005 32.5622 18.4799 33.5417 19.688 33.5417H31.3546C32.5627 33.5417 33.5421 32.5622 33.5421 31.3542V24.0626C33.5421 22.8544 32.5627 21.8751 31.3546 21.8751H30.6255V20.0521C30.6255 18.6426 29.4829 17.5 28.0734 17.5H22.9692C21.5598 17.5 20.4171 18.6426 20.4171 20.0521V21.8751ZM22.6046 20.0521C22.6046 19.8507 22.7678 19.6875 22.9692 19.6875H28.0734C28.2748 19.6875 28.438 19.8507 28.438 20.0521V21.8751H22.6046V20.0521Z" fill="white" fill-opacity="0.7"/>
</svg>
