<svg width="27" height="27" viewBox="0 0 35 35" fill="none" >
<path d="M31.2233 18.5938C31.8273 18.5938 32.3171 18.104 32.3171 17.5C32.3171 16.896 31.8273 16.4062 31.2233 16.4062H29.4004V12.7604C29.4004 10.9482 27.9313 9.47917 26.1191 9.47917H22.4733C20.6612 9.47917 19.1921 10.9482 19.1921 12.7604V16.4062H16.2754V9.84375C16.2754 8.03157 14.8063 6.5625 12.9941 6.5625H9.34831C7.53612 6.5625 6.06706 8.03157 6.06706 9.84375V16.4062H4.24414C3.64008 16.4062 3.15039 16.896 3.15039 17.5C3.15039 18.104 3.64008 18.5938 4.24414 18.5938H6.06706V25.1562C6.06706 26.9684 7.53612 28.4375 9.34831 28.4375H12.9941C14.8063 28.4375 16.2754 26.9684 16.2754 25.1562V18.5938H19.1921V22.2396C19.1921 24.0517 20.6612 25.5208 22.4733 25.5208H26.1191C27.9313 25.5208 29.4004 24.0517 29.4004 22.2396V18.5938H31.2233ZM27.2129 12.7604V22.2396C27.2129 22.8436 26.7232 23.3333 26.1191 23.3333H22.4733C21.8693 23.3333 21.3796 22.8436 21.3796 22.2396V12.7604C21.3796 12.1564 21.8693 11.6667 22.4733 11.6667H26.1191C26.7232 11.6667 27.2129 12.1564 27.2129 12.7604ZM14.0879 9.84375V25.1562C14.0879 25.7603 13.5982 26.25 12.9941 26.25H9.34831C8.74424 26.25 8.25456 25.7603 8.25456 25.1562V9.84375C8.25456 9.23969 8.74425 8.75 9.34831 8.75H12.9941C13.5982 8.75 14.0879 9.23969 14.0879 9.84375Z" fill="white" fill-opacity="0.7"/>
</svg>
