<svg width="271" height="64" viewBox="0 0 271 64" fill="none" xmlns="http://www.w3.org/2000/svg">
<path d="M45.2076 11.8531L47.425 8.4941C44.493 7.03425 41.1066 6.2012 37.4995 6.2012C37.4616 6.2012 37.4238 6.20129 37.3859 6.20148C37.1803 7.41331 37.0535 8.63244 36.9492 10.0726C37.1319 10.067 37.3153 10.0642 37.4995 10.0642C40.3019 10.0642 42.9322 10.7143 45.2076 11.8531Z" fill="#24A0ED"/>
<path d="M19.4805 32.1222C18.0755 29.6938 17.2832 26.9437 17.2832 24.0304C17.2832 14.217 26.2736 6.25534 37.3871 6.20146C37.1814 7.4133 37.0546 8.63243 36.9504 10.0726C28.5607 10.3284 21.8484 16.4131 21.8484 23.8818C21.8484 26.1178 22.4501 28.2298 23.5183 30.0985L19.4805 32.1222Z" fill="#24A0ED"/>
<path d="M57.716 24.0304C57.716 17.3646 53.568 11.5532 47.4241 8.49409L45.2067 11.8531C49.9501 14.227 53.1508 18.7244 53.1508 23.8818C53.1508 30.5142 47.8575 36.0552 40.7969 37.3921L42.7223 41.2587C51.3562 39.228 57.716 32.2842 57.716 24.0304Z" fill="#24A0ED"/>
<path d="M37.418 6.2012L38.9669 0.0352783C43.221 0.212933 47.3914 1.00918 51.4092 2.48783L47.4451 8.50413C44.1404 7.35388 40.8655 6.19742 37.418 6.2012Z" fill="#24A0ED"/>
<path d="M39.0489 0.0352737C24.3908 -0.576866 9.14028 6.75448 0 23.8964C2.58665 29.2481 4.63329 31.9295 9.04891 36.3025L16.712 33.331C12.68 29.8812 10.9 27.8233 8.72283 23.8964C16.214 12.2512 26.3315 6.7955 37.4185 6.20119L39.0489 0.0352737Z" fill="#24A0ED"/>
<path d="M47.4455 8.50413C54.6685 11.0182 61.5795 16.1455 66.3585 23.8964C62.0379 31.1023 55.5161 37.714 42.4727 41.057L45.9781 47C58.9663 43.831 68.8042 36.1539 74.9998 23.8964C69.8313 13.4503 61.2059 6.10772 51.4095 2.50241L47.4455 8.50413Z" fill="#24A0ED"/>
<ellipse cx="37.5817" cy="23.8818" rx="10.6793" ry="9.36031" fill="#24A0ED"/>
<path fill-rule="evenodd" clip-rule="evenodd" d="M33.668 22.9161V27.4476C34.3091 28.1614 34.7767 28.3261 35.706 28.4134H39.7006C40.571 28.2664 40.9136 28.0408 41.331 27.4476V22.9161H40.5973V21.356C39.456 18.7559 35.8691 18.3102 34.5647 21.356V22.9161H33.668ZM35.7875 22.6932H39.3745V21.6532C38.7223 20.0931 36.5212 19.9445 35.7875 21.6532V22.6932ZM37.2549 25.6647V26.7048H36.9288V27.0019H38.1517V26.7048H37.8256V25.6647H38.1517V24.8475C38.1061 24.6764 38.0279 24.6159 37.8256 24.5504H37.2549C37.021 24.6382 36.9887 24.7116 36.9336 24.8369L36.9288 24.8475V25.6647H37.2549Z" fill="white" fill-opacity="0.5"/>
<path d="M108.935 13.31V35H105.38V20.99C105.38 20.43 105.41 19.825 105.47 19.175L98.915 31.49C98.605 32.08 98.13 32.375 97.49 32.375H96.92C96.28 32.375 95.805 32.08 95.495 31.49L88.865 19.13C88.895 19.46 88.92 19.785 88.94 20.105C88.96 20.425 88.97 20.72 88.97 20.99V35H85.415V13.31H88.46C88.64 13.31 88.795 13.315 88.925 13.325C89.055 13.335 89.17 13.36 89.27 13.4C89.38 13.44 89.475 13.505 89.555 13.595C89.645 13.685 89.73 13.805 89.81 13.955L96.305 26C96.475 26.32 96.63 26.65 96.77 26.99C96.92 27.33 97.065 27.68 97.205 28.04C97.345 27.67 97.49 27.315 97.64 26.975C97.79 26.625 97.95 26.29 98.12 25.97L104.525 13.955C104.605 13.805 104.69 13.685 104.78 13.595C104.87 13.505 104.965 13.44 105.065 13.4C105.175 13.36 105.295 13.335 105.425 13.325C105.555 13.315 105.71 13.31 105.89 13.31H108.935ZM126.847 19.61L118.462 39.23C118.352 39.49 118.207 39.685 118.027 39.815C117.857 39.955 117.592 40.025 117.232 40.025H114.472L117.352 33.845L111.127 19.61H114.382C114.672 19.61 114.897 19.68 115.057 19.82C115.227 19.96 115.352 20.12 115.432 20.3L118.702 28.28C118.812 28.55 118.902 28.82 118.972 29.09C119.052 29.36 119.127 29.635 119.197 29.915C119.287 29.635 119.377 29.36 119.467 29.09C119.557 28.81 119.657 28.535 119.767 28.265L122.857 20.3C122.937 20.1 123.067 19.935 123.247 19.805C123.437 19.675 123.647 19.61 123.877 19.61H126.847ZM148.239 24.155C148.239 25.745 147.974 27.205 147.444 28.535C146.914 29.865 146.169 31.01 145.209 31.97C144.249 32.93 143.094 33.675 141.744 34.205C140.394 34.735 138.894 35 137.244 35H128.979V13.31H137.244C138.894 13.31 140.394 13.58 141.744 14.12C143.094 14.65 144.249 15.395 145.209 16.355C146.169 17.305 146.914 18.445 147.444 19.775C147.974 21.105 148.239 22.565 148.239 24.155ZM144.099 24.155C144.099 22.965 143.939 21.9 143.619 20.96C143.309 20.01 142.854 19.21 142.254 18.56C141.664 17.9 140.944 17.395 140.094 17.045C139.254 16.695 138.304 16.52 137.244 16.52H133.029V31.79H137.244C138.304 31.79 139.254 31.615 140.094 31.265C140.944 30.915 141.664 30.415 142.254 29.765C142.854 29.105 143.309 28.305 143.619 27.365C143.939 26.415 144.099 25.345 144.099 24.155ZM157.822 19.37C158.962 19.37 159.997 19.555 160.927 19.925C161.867 20.295 162.667 20.82 163.327 21.5C163.997 22.18 164.512 23.01 164.872 23.99C165.232 24.97 165.412 26.065 165.412 27.275C165.412 28.495 165.232 29.595 164.872 30.575C164.512 31.555 163.997 32.39 163.327 33.08C162.667 33.77 161.867 34.3 160.927 34.67C159.997 35.04 158.962 35.225 157.822 35.225C156.672 35.225 155.627 35.04 154.687 34.67C153.747 34.3 152.942 33.77 152.272 33.08C151.612 32.39 151.097 31.555 150.727 30.575C150.367 29.595 150.187 28.495 150.187 27.275C150.187 26.065 150.367 24.97 150.727 23.99C151.097 23.01 151.612 22.18 152.272 21.5C152.942 20.82 153.747 20.295 154.687 19.925C155.627 19.555 156.672 19.37 157.822 19.37ZM157.822 32.375C159.102 32.375 160.047 31.945 160.657 31.085C161.277 30.225 161.587 28.965 161.587 27.305C161.587 25.645 161.277 24.38 160.657 23.51C160.047 22.64 159.102 22.205 157.822 22.205C156.522 22.205 155.557 22.645 154.927 23.525C154.307 24.395 153.997 25.655 153.997 27.305C153.997 28.955 154.307 30.215 154.927 31.085C155.557 31.945 156.522 32.375 157.822 32.375ZM175.048 19.37C176.188 19.37 177.223 19.555 178.153 19.925C179.093 20.295 179.893 20.82 180.553 21.5C181.223 22.18 181.738 23.01 182.098 23.99C182.458 24.97 182.638 26.065 182.638 27.275C182.638 28.495 182.458 29.595 182.098 30.575C181.738 31.555 181.223 32.39 180.553 33.08C179.893 33.77 179.093 34.3 178.153 34.67C177.223 35.04 176.188 35.225 175.048 35.225C173.898 35.225 172.853 35.04 171.913 34.67C170.973 34.3 170.168 33.77 169.498 33.08C168.838 32.39 168.323 31.555 167.953 30.575C167.593 29.595 167.413 28.495 167.413 27.275C167.413 26.065 167.593 24.97 167.953 23.99C168.323 23.01 168.838 22.18 169.498 21.5C170.168 20.82 170.973 20.295 171.913 19.925C172.853 19.555 173.898 19.37 175.048 19.37ZM175.048 32.375C176.328 32.375 177.273 31.945 177.883 31.085C178.503 30.225 178.813 28.965 178.813 27.305C178.813 25.645 178.503 24.38 177.883 23.51C177.273 22.64 176.328 22.205 175.048 22.205C173.748 22.205 172.783 22.645 172.153 23.525C171.533 24.395 171.223 25.655 171.223 27.305C171.223 28.955 171.533 30.215 172.153 31.085C172.783 31.945 173.748 32.375 175.048 32.375ZM188.96 22.28C189.44 21.36 190.01 20.64 190.67 20.12C191.33 19.59 192.11 19.325 193.01 19.325C193.72 19.325 194.29 19.48 194.72 19.79L194.48 22.565C194.43 22.745 194.355 22.875 194.255 22.955C194.165 23.025 194.04 23.06 193.88 23.06C193.73 23.06 193.505 23.035 193.205 22.985C192.915 22.935 192.63 22.91 192.35 22.91C191.94 22.91 191.575 22.97 191.255 23.09C190.935 23.21 190.645 23.385 190.385 23.615C190.135 23.835 189.91 24.105 189.71 24.425C189.52 24.745 189.34 25.11 189.17 25.52V35H185.465V19.61H187.64C188.02 19.61 188.285 19.68 188.435 19.82C188.585 19.95 188.685 20.19 188.735 20.54L188.96 22.28ZM215.152 13.31L206.392 35H202.747L193.987 13.31H197.227C197.577 13.31 197.862 13.395 198.082 13.565C198.302 13.735 198.467 13.955 198.577 14.225L203.692 27.455C203.862 27.885 204.022 28.36 204.172 28.88C204.332 29.39 204.482 29.925 204.622 30.485C204.742 29.925 204.872 29.39 205.012 28.88C205.152 28.36 205.307 27.885 205.477 27.455L210.562 14.225C210.642 13.995 210.797 13.785 211.027 13.595C211.267 13.405 211.557 13.31 211.897 13.31H215.152ZM220.652 19.61V35H216.932V19.61H220.652ZM221.162 15.125C221.162 15.445 221.097 15.745 220.967 16.025C220.837 16.305 220.662 16.55 220.442 16.76C220.232 16.97 219.982 17.14 219.692 17.27C219.402 17.39 219.092 17.45 218.762 17.45C218.442 17.45 218.137 17.39 217.847 17.27C217.567 17.14 217.322 16.97 217.112 16.76C216.902 16.55 216.732 16.305 216.602 16.025C216.482 15.745 216.422 15.445 216.422 15.125C216.422 14.795 216.482 14.485 216.602 14.195C216.732 13.905 216.902 13.655 217.112 13.445C217.322 13.235 217.567 13.07 217.847 12.95C218.137 12.82 218.442 12.755 218.762 12.755C219.092 12.755 219.402 12.82 219.692 12.95C219.982 13.07 220.232 13.235 220.442 13.445C220.662 13.655 220.837 13.905 220.967 14.195C221.097 14.485 221.162 14.795 221.162 15.125ZM234.345 25.535C234.345 25.055 234.275 24.605 234.135 24.185C234.005 23.755 233.805 23.38 233.535 23.06C233.265 22.74 232.92 22.49 232.5 22.31C232.09 22.12 231.61 22.025 231.06 22.025C229.99 22.025 229.145 22.33 228.525 22.94C227.915 23.55 227.525 24.415 227.355 25.535H234.345ZM227.28 27.77C227.34 28.56 227.48 29.245 227.7 29.825C227.92 30.395 228.21 30.87 228.57 31.25C228.93 31.62 229.355 31.9 229.845 32.09C230.345 32.27 230.895 32.36 231.495 32.36C232.095 32.36 232.61 32.29 233.04 32.15C233.48 32.01 233.86 31.855 234.18 31.685C234.51 31.515 234.795 31.36 235.035 31.22C235.285 31.08 235.525 31.01 235.755 31.01C236.065 31.01 236.295 31.125 236.445 31.355L237.51 32.705C237.1 33.185 236.64 33.59 236.13 33.92C235.62 34.24 235.085 34.5 234.525 34.7C233.975 34.89 233.41 35.025 232.83 35.105C232.26 35.185 231.705 35.225 231.165 35.225C230.095 35.225 229.1 35.05 228.18 34.7C227.26 34.34 226.46 33.815 225.78 33.125C225.1 32.425 224.565 31.565 224.175 30.545C223.785 29.515 223.59 28.325 223.59 26.975C223.59 25.925 223.76 24.94 224.1 24.02C224.44 23.09 224.925 22.285 225.555 21.605C226.195 20.915 226.97 20.37 227.88 19.97C228.8 19.57 229.835 19.37 230.985 19.37C231.955 19.37 232.85 19.525 233.67 19.835C234.49 20.145 235.195 20.6 235.785 21.2C236.375 21.79 236.835 22.52 237.165 23.39C237.505 24.25 237.675 25.235 237.675 26.345C237.675 26.905 237.615 27.285 237.495 27.485C237.375 27.675 237.145 27.77 236.805 27.77H227.28ZM262.225 19.61L257.335 35H254.365C254.025 35 253.79 34.78 253.66 34.34L250.9 25.445C250.81 25.145 250.725 24.85 250.645 24.56C250.575 24.26 250.515 23.96 250.465 23.66C250.405 23.96 250.335 24.265 250.255 24.575C250.185 24.875 250.105 25.175 250.015 25.475L247.21 34.34C247.09 34.78 246.825 35 246.415 35H243.565L238.69 19.61H241.645C241.915 19.61 242.145 19.675 242.335 19.805C242.525 19.935 242.65 20.1 242.71 20.3L244.915 28.52C245.025 28.97 245.12 29.41 245.2 29.84C245.29 30.27 245.365 30.7 245.425 31.13C245.535 30.7 245.65 30.27 245.77 29.84C245.9 29.41 246.035 28.97 246.175 28.52L248.725 20.27C248.785 20.07 248.9 19.905 249.07 19.775C249.25 19.645 249.465 19.58 249.715 19.58H251.35C251.61 19.58 251.83 19.645 252.01 19.775C252.2 19.905 252.325 20.07 252.385 20.27L254.86 28.52C254.99 28.97 255.11 29.415 255.22 29.855C255.34 30.285 255.455 30.715 255.565 31.145C255.695 30.295 255.88 29.42 256.12 28.52L258.385 20.3C258.455 20.1 258.58 19.935 258.76 19.805C258.94 19.675 259.155 19.61 259.405 19.61H262.225Z" fill="white"/>
</svg>
