<svg width="27" height="27" viewBox="0 0 35 35" fill="none" fill="none" xmlns="http://www.w3.org/2000/svg">
<path d="M30.625 25.8854C30.625 28.503 28.503 30.625 25.8854 30.625H9.11458C6.49698 30.625 4.375 28.503 4.375 25.8854V9.11458C4.375 6.49698 6.49698 4.375 9.11458 4.375H25.8854C28.503 4.375 30.625 6.49698 30.625 9.11458V25.8854ZM28.4375 25.8854V9.11458C28.4375 7.7051 27.2949 6.5625 25.8854 6.5625H9.11458C7.7051 6.5625 6.5625 7.7051 6.5625 9.11458V25.8854C6.5625 27.2949 7.7051 28.4375 9.11458 28.4375H25.8854C27.2949 28.4375 28.4375 27.2949 28.4375 25.8854ZM24.7917 11.3021C24.7917 11.8558 24.3801 12.3134 23.8464 12.3858L23.6979 12.3958H11.3021C10.698 12.3958 10.2083 11.9061 10.2083 11.3021C10.2083 10.7484 10.6198 10.2907 11.1537 10.2183L11.3021 10.2083H23.6979C24.302 10.2083 24.7917 10.698 24.7917 11.3021ZM24.7917 23.6979C24.7917 24.2516 24.3801 24.7093 23.8464 24.7818L23.6979 24.7917H11.3021C10.698 24.7917 10.2083 24.302 10.2083 23.6979C10.2083 23.1442 10.6198 22.6866 11.1537 22.6141L11.3021 22.6042H23.6979C24.302 22.6042 24.7917 23.0939 24.7917 23.6979ZM24.7917 17.5C24.7917 18.0537 24.3801 18.5114 23.8464 18.5838L23.6979 18.5938H11.3021C10.698 18.5938 10.2083 18.104 10.2083 17.5C10.2083 16.9463 10.6198 16.4886 11.1537 16.4162L11.3021 16.4062H23.6979C24.302 16.4062 24.7917 16.896 24.7917 17.5Z" fill="#FCFCFC" fill-opacity="0.7"/>
</svg>
